<?xml version="1.0" encoding="UTF-8" standalone="no"?>
<!-- Created with Inkscape (http://www.inkscape.org/) -->

<svg
   width="105.625mm"
   height="98.733795mm"
   viewBox="0 0 105.625 98.733795"
   version="1.1"
   id="svg1"
   xml:space="preserve"
   inkscape:version="1.3.2 (1:1.3.2+202311252150+091e20ef0f)"
   sodipodi:docname="basti.svg"
   xmlns:inkscape="http://www.inkscape.org/namespaces/inkscape"
   xmlns:sodipodi="http://sodipodi.sourceforge.net/DTD/sodipodi-0.dtd"
   xmlns="http://www.w3.org/2000/svg"
   xmlns:svg="http://www.w3.org/2000/svg"><sodipodi:namedview
     id="namedview1"
     pagecolor="#ffffff"
     bordercolor="#000000"
     borderopacity="0.25"
     inkscape:showpageshadow="2"
     inkscape:pageopacity="0.0"
     inkscape:pagecheckerboard="0"
     inkscape:deskcolor="#d1d1d1"
     inkscape:document-units="mm"
     inkscape:zoom="1.4538721"
     inkscape:cx="192.24525"
     inkscape:cy="267.56137"
     inkscape:window-width="1848"
     inkscape:window-height="1016"
     inkscape:window-x="72"
     inkscape:window-y="27"
     inkscape:window-maximized="1"
     inkscape:current-layer="svg1"
     inkscape:lockguides="false" /><defs
     id="defs1" /><g
     inkscape:groupmode="layer"
     id="layer2"
     inkscape:label="Person"
     style="display:inline"
     transform="translate(0.3124995,-34.51889)"><path
       style="display:inline;fill:none;stroke:#8aacf4;stroke-width:0.625;stroke-linecap:round;stroke-linejoin:round;stroke-dasharray:none;stroke-opacity:1;paint-order:markers stroke fill"
       d="M 59.834545,93.283287 105,89.044429"
       id="path12"
       inkscape:label="line_right_bottom"
       sodipodi:nodetypes="cc" /><path
       style="display:inline;fill:none;stroke:#8aacf4;stroke-width:0.625;stroke-linecap:round;stroke-linejoin:round;stroke-dasharray:none;stroke-opacity:1;paint-order:markers stroke fill"
       d="M 62.229288,92.140139 105,88.050403"
       id="path13"
       inkscape:label="line_right_top" /><path
       style="display:inline;fill:none;stroke:#8aacf4;stroke-width:0.624999;stroke-linecap:round;stroke-linejoin:round;stroke-dasharray:none;stroke-opacity:1;paint-order:markers stroke fill"
       d="M 22.5593,93.653788 0,92.464997"
       id="path31"
       inkscape:label="line_left_bottom_left"
       sodipodi:nodetypes="cc" /><path
       style="display:inline;fill:none;stroke:#8aacf4;stroke-width:0.624999;stroke-linecap:round;stroke-linejoin:round;stroke-dasharray:none;stroke-opacity:1;paint-order:markers stroke fill"
       d="m 22.991436,92.327925 -8.003425,-0.331106 m 0,0 L 0,91.376753"
       id="path42"
       inkscape:label="line_left_top_left"
       sodipodi:nodetypes="cccc" /><path
       style="display:inline;fill:none;stroke:#141e30;stroke-width:0.624999;stroke-linecap:round;stroke-linejoin:round;stroke-dasharray:none;stroke-opacity:1;paint-order:markers stroke fill"
       d="m 27.248217,92.384958 c -0.571875,-1.008203 -1.170154,-1.336882 -2.099988,-1.283012 -1.018832,0.05903 -2.253852,1.026627 -2.2677,2.096364 -0.01785,1.379212 0.440768,2.065329 1.46992,2.531351 1.310648,0.593491 1.942029,-0.02124 1.942029,-0.02124"
       id="path30"
       sodipodi:nodetypes="csssc" /><path
       style="display:inline;fill:none;stroke:#8aacf4;stroke-width:0.624999;stroke-linecap:round;stroke-linejoin:round;stroke-dasharray:none;stroke-opacity:1;paint-order:markers stroke fill"
       d="M 29.976021,92.616889 24.605955,92.433658 M 14.988011,91.996819 0,91.376753"
       id="path32"
       inkscape:label="line_left_top_right"
       sodipodi:nodetypes="cccc" /><path
       style="display:inline;fill:none;stroke:#141e30;stroke-width:0.624999;stroke-linecap:round;stroke-linejoin:round;stroke-dasharray:none;stroke-opacity:1;paint-order:markers stroke fill"
       d="m 25.622019,92.152498 c -0.950741,-0.223197 -1.707213,0.917446 -1.52143,1.553645 0.185782,0.636198 0.60637,1.022122 1.04764,1.096208 0.483142,0.08112 1.196569,0.06067 1.449393,-0.894379"
       id="path29"
       sodipodi:nodetypes="cssc" /><path
       style="display:inline;fill:none;stroke:#8aacf4;stroke-width:0.624999;stroke-linecap:round;stroke-linejoin:round;stroke-dasharray:none;stroke-opacity:1;paint-order:markers stroke fill"
       d="M 28.478943,93.931622 24.77228,93.758268"
       id="path43"
       inkscape:label="line_left_bottom_right"
       sodipodi:nodetypes="cc" /><path
       style="display:inline;fill:none;stroke:#141e30;stroke-width:0.625;stroke-linecap:round;stroke-linejoin:round;stroke-dasharray:none;stroke-opacity:1;paint-order:markers stroke fill"
       d="m 51.201644,131.22028 c 0.265312,-1.30779 2.036777,-6.17423 2.036777,-7.84886 0,-1.67462 -0.81272,-7.41774 -2.071453,-9.79937 -1.258739,-2.38163 -3.048291,-5.13216 -3.649013,-7.18417 -0.600724,-2.052 -0.93535,-4.76169 -1.535012,-5.75495 -0.599662,-0.993252 -2.132383,-3.242609 -2.140626,-4.687964 -0.0083,-1.445353 1.176585,-2.648479 1.176585,-2.648479 l 1.526709,-1.529496 c 0,0 1.932233,-0.618357 3.358309,0.06735 1.426079,0.685716 2.972769,1.648899 3.334501,2.425502 0.361727,0.776614 0.299737,2.415702 0,2.853238 -0.299737,0.437537 -1.426805,1.201775 -1.426805,1.201775 0,0 1.513846,2.492224 1.974481,3.397854 0.460637,0.90562 1.545785,2.88652 1.728658,4.61886 0.182868,1.73232 0.642031,7.86913 1.070199,10.2369 0.428162,2.36775 2.022543,4.53179 2.151372,6.4622 0.128829,1.9304 -0.08569,5.75636 -0.24566,6.44972 -0.159972,0.69337 -0.498956,2.71766 -1.686716,2.9533 -1.187766,0.23566 -5.400534,0.86234 -5.750126,0.2362 -0.349586,-0.62615 0.14782,-1.44963 0.14782,-1.44963 z"
       id="path3" /><path
       style="display:inline;fill:none;stroke:#141e30;stroke-width:0.625;stroke-linecap:round;stroke-linejoin:round;stroke-dasharray:none;stroke-opacity:1;paint-order:markers stroke fill"
       d="m 42.46132,100.30118 1.620115,-3.194471"
       id="path4" /><path
       style="display:inline;fill:none;stroke:#141e30;stroke-width:0.625;stroke-linecap:round;stroke-linejoin:round;stroke-dasharray:none;stroke-opacity:1;paint-order:markers stroke fill"
       d="m 52.954245,100.23163 c 0,0 0.945847,0.46568 1.492951,-0.0305 0.547099,-0.496095 0.535225,-1.807535 0.05039,-2.405163 C 54.012729,97.19834 54.488186,97.14532 54.337958,96.282064 54.18782,95.418798 53.238444,94.25977 53.238444,94.25977"
       id="path5" /><path
       style="display:inline;fill:none;stroke:#141e30;stroke-width:0.625;stroke-linecap:round;stroke-linejoin:round;stroke-dasharray:none;stroke-opacity:1;paint-order:markers stroke fill"
       d="m 30.987753,91.719043 c 0,0 2.624961,-3.461417 4.212317,-4.695932 1.587357,-1.234509 3.225713,-2.406775 4.065599,-2.719917 0.839884,-0.313144 2.685233,-0.114139 3.843606,-2.040784"
       id="path6"
       sodipodi:nodetypes="cssc" /><path
       style="display:inline;fill:none;stroke:#141e30;stroke-width:0.625;stroke-linecap:round;stroke-linejoin:round;stroke-dasharray:none;stroke-opacity:1;paint-order:markers stroke fill"
       d="m 55.029948,98.703938 0.333224,-1.110522 c 0,0 3.366625,-0.899728 4.228857,-1.905337 0.862227,-1.005619 0.139497,-2.391592 0.139497,-2.391592 l 1.140148,-1.070436 0.455339,-0.107242 0.902275,0.02134 c 0,0 0.194954,-0.75642 0.634084,-1.366091 0.439132,-0.609681 0.92088,-3.40682 0.822271,-3.965014 -0.09861,-0.558188 -2.005918,-2.40361 -2.445687,-2.805784 -0.439769,-0.402175 -1.959204,-1.329495 -3.067167,-1.766809 -1.107963,-0.437314 -2.693545,-1.390394 -3.388659,-1.917934 -0.695111,-0.527541 -1.327624,-1.152446 -2.150069,-1.358815"
       id="path7"
       sodipodi:nodetypes="ccsccccsssssc" /><path
       style="display:inline;fill:none;stroke:#141e30;stroke-width:0.625;stroke-linecap:round;stroke-linejoin:round;stroke-dasharray:none;stroke-opacity:1;paint-order:markers stroke fill"
       d="m 63.685643,86.809034 c 0,0 0.535699,-3.173211 0.185158,-4.11152 -0.350546,-0.938311 0,-0.665064 0,-0.665064 l 0.306091,-1.639337 c 0,0 0.638344,0.358247 0.813304,0.17461 0.174965,-0.183636 0.230634,-1.711848 0.917317,-2.541846 0.686678,-0.829998 0.930718,-3.100475 0.930718,-3.100475 0,0 -0.161908,-2.015349 0.29965,-3.4483 0.461563,-1.432951 1.257299,-2.640286 1.543433,-3.905128 0.286135,-1.264836 0.100679,-1.09784 0.100679,-1.09784 l 0.368539,-0.233923 c 0,0 1.176972,-2.012026 1.392058,-3.021304 0.215084,-1.009283 0.50539,-4.563282 0.04576,-5.519012 -0.459627,-0.95573 -1.945434,-1.98396 -3.217218,-2.559005 -1.271786,-0.575044 -3.335058,-1.536005 -4.391502,-2.309735 -1.056438,-0.773733 -2.244865,-1.472494 -2.244865,-1.472494 0,0 -0.811444,1.619448 -1.409934,2.102854 -0.598492,0.483401 -2.816562,1.902188 -3.836245,2.162411 -1.019684,0.260227 -3.124696,0.54748 -3.676971,0.03643 -0.552279,-0.51102 -0.463324,-2.138118 0,-2.778688 0.463325,-0.64057 1.426805,-0.869229 1.426805,-0.869229"
       id="path8" /><path
       style="fill:none;stroke:#141e30;stroke-width:0.625;stroke-linecap:round;stroke-linejoin:round;stroke-dasharray:none;stroke-opacity:1;paint-order:markers stroke fill"
       d="m 28.356666,128.42879 c 1.102336,-2.07756 2.994607,-5.66126 3.092399,-6.85285 0.09779,-1.19161 -0.645823,-4.6986 -2.49511,-10.02258 -1.849289,-5.32398 -3.138273,-11.01332 -3.431564,-13.239428 -0.293292,-2.226119 0.492434,-2.353201 1.352317,-3.023142 0.859884,-0.669951 4.113045,-3.571747 4.113045,-3.571747 0,0 3.167235,-0.283355 4.599868,0.896211 1.432634,1.179565 7.311279,6.498113 6.873699,7.685926 -0.437579,1.18782 -5.51577,-1.333576 -6.210742,-1.203792 -0.694971,0.129773 -2.533509,1.920482 -2.533509,1.920482 0,0 2.402204,6.55042 2.599348,8.58536 0.197145,2.03494 -0.782458,2.68046 -0.426453,4.64487 0.356004,1.96443 1.790497,7.14353 2.395315,7.94932 0.604818,0.8058 0.402601,2.54264 -0.71934,2.93942 -1.12194,0.3968 -2.96936,1.26333 -3.381306,2.05533 -0.411945,0.79199 -0.687828,3.19328 -1.715072,3.5463 -1.027243,0.35302 -3.35119,2.28355 -4.250515,1.9891 -0.899325,-0.29446 -1.183035,-0.52637 -0.917101,-1.85139 0.265932,-1.32502 1.054721,-2.44739 1.054721,-2.44739 z"
       id="path1" /><path
       style="fill:none;stroke:#141e30;stroke-width:0.625;stroke-linecap:round;stroke-linejoin:round;stroke-dasharray:none;stroke-opacity:1;paint-order:markers stroke fill"
       d="m 36.250578,99.097388 c 3.86011,-2.2448 0.323742,-5.630462 0.323742,-5.630462"
       id="path2" /><path
       style="fill:none;stroke:#141e30;stroke-width:0.625;stroke-linecap:round;stroke-linejoin:round;stroke-dasharray:none;stroke-opacity:1;paint-order:markers stroke fill"
       d="m 45.018902,93.296487 c 2.474352,-4.252058 4.136149,-6.572517 5.464431,-8.020056"
       id="path9" /><path
       style="fill:none;stroke:#141e30;stroke-width:0.625;stroke-linecap:round;stroke-linejoin:round;stroke-dasharray:none;stroke-opacity:1;paint-order:markers stroke fill"
       d="m 60.871674,92.226051 c -0.735159,-2.939599 -1.673763,-4.613163 -2.22619,-5.246577 -0.552422,-0.633411 -1.91488,-2.144694 -3.191699,-2.11912 -1.276825,0.02558 -2.285917,0.245639 -2.875879,0.245639 -0.589955,0 -1.924134,-0.840449 -1.924134,-0.840449 0,0 -0.04489,-1.363063 -0.824932,-1.696097 -0.780071,-0.333033 -1.80937,-0.333033 -1.80937,-0.333033 l -1.520585,0.323303"
       id="path10"
       sodipodi:nodetypes="cssscscc" /><path
       style="fill:none;stroke:#141e30;stroke-width:0.625;stroke-linecap:round;stroke-linejoin:round;stroke-dasharray:none;stroke-opacity:1;paint-order:markers stroke fill"
       d="m 61.327013,92.11882 c 0,0 0.185355,-3.38416 -0.757984,-4.710228 -0.943338,-1.326062 -2.686857,-2.410567 -3.73626,-2.898674 -1.049397,-0.488113 -3.38986,0.250443 -4.444864,-0.03512 -1.055009,-0.285567 -0.980557,-1.266255 -1.586265,-1.957541 -0.605706,-0.691293 -2.78217,-0.280839 -2.78217,-0.280839"
       id="path11"
       sodipodi:nodetypes="cssssc" /><path
       style="fill:none;stroke:#141e30;stroke-width:0.625;stroke-linecap:round;stroke-linejoin:round;stroke-dasharray:none;stroke-opacity:1;paint-order:markers stroke fill"
       d="m 59.407569,66.608455 c 0,0 1.41018,-2.061843 1.723825,-2.315205 0.313645,-0.253366 0.692045,-0.33222 1.207509,-0.62731 0.51546,-0.295089 1.309413,-0.288943 1.446505,-0.106556 0.137093,0.182388 -0.807178,0.455536 -0.807178,0.455536 0,0 1.478731,0.03512 1.684103,0.434974 0.205361,0.399862 -0.225791,0.711107 -0.296971,0.929083 -0.07118,0.217974 -1.158086,0.747446 -1.419873,0.904723 -0.261788,0.157278 -1.432647,0.589411 -1.432647,0.589411 0,0 -0.825705,-0.177141 -1.532956,-0.251256 -0.707245,-0.07411 -1.23587,0.197141 -2.388916,0.413551 -1.153045,0.21641 -5.779354,0.06733 -5.779354,0.06733 0,0 -1.382823,0.03655 -1.936346,0.145328 -0.553518,0.108787 -0.917143,0.601078 -1.094215,1.024386 -0.177074,0.423308 -0.440963,1.989938 0.30299,2.055631 0.743955,0.06569 3.258051,1.910763 4.154376,2.506653 0.896325,0.59589 3.125602,1.21858 4.279024,1.149052 1.153422,-0.06954 4.049288,-0.549355 5.182258,-0.758059 1.132964,-0.208709 3.622926,-2.571239 6.082292,-6.751594 -0.317843,-2.099378 -1.259132,-2.478662 -1.910009,-2.661758 -0.650877,-0.183097 -2.523467,-0.299136 -2.946088,-0.241673"
       id="path14" /><path
       style="fill:none;stroke:#141e30;stroke-width:0.625;stroke-linecap:round;stroke-linejoin:round;stroke-dasharray:none;stroke-opacity:1;paint-order:markers stroke fill"
       d="m 52.064923,52.606402 c -2.763744,0.837737 -7.322443,2.295662 -8.328393,2.607288 -1.005948,0.311632 -3.888307,9.523922 -3.888307,9.523922 0,0 1.54855,-0.735049 2.438808,-0.654548 0.890258,0.08051 3.319991,0.790658 3.462031,1.169369 0.142039,0.378717 -1.20617,2.852295 -1.856566,3.359061 -0.247767,0.19305 2.058273,1.450813 2.722232,1.948111 0.758291,0.567955 2.175663,0.158019 3.347997,0.126773"
       id="path15"
       sodipodi:nodetypes="cscssssc" /><path
       style="fill:none;stroke:#141e30;stroke-width:0.625;stroke-linecap:round;stroke-linejoin:round;stroke-dasharray:none;stroke-opacity:1;paint-order:markers stroke fill"
       d="m 44.88234,69.4527 c -0.0855,-2.016537 1.801463,-3.526281 1.801463,-3.526281 0,0 1.648929,-1.438438 2.988157,-1.008808 1.339225,0.42963 0.841065,1.422223 0.841065,1.422223 0,0 0.916892,0.216721 1.298591,0.762903"
       id="path16" /><path
       style="fill:none;stroke:#141e30;stroke-width:0.625;stroke-linecap:round;stroke-linejoin:round;stroke-dasharray:none;stroke-opacity:1;paint-order:markers stroke fill"
       d="m 45.749062,65.252433 c 0,0 0.219078,-0.572209 0.110789,-2.045885"
       id="path17" /><path
       style="fill:none;stroke:#141e30;stroke-width:0.625;stroke-linecap:round;stroke-linejoin:round;stroke-dasharray:none;stroke-opacity:1;paint-order:markers stroke fill"
       d="m 39.848223,64.737612 c 0,0 -0.78921,6.313297 -0.691214,7.774015 0.098,1.460718 -0.171484,1.453901 0.292016,2.015165 0.411266,0.498012 3.465235,0.432763 4.770146,0.616749 1.304912,0.183986 5.119582,-0.07553 6.7653,-0.31185 C 52.630194,74.595374 55.9701,73.82417 55.9701,73.82417"
       id="path18"
       sodipodi:nodetypes="cssssc" /><path
       style="fill:none;stroke:#141e30;stroke-width:0.625;stroke-linecap:round;stroke-linejoin:round;stroke-dasharray:none;stroke-opacity:1;paint-order:markers stroke fill"
       d="m 60.734766,51.358661 c 0,0 -0.356932,-2.043855 -0.203374,-3.148402 0.153557,-1.104548 0.600002,-1.26374 0.600002,-1.26374 0,0 0.812993,-1.242273 1.175047,-2.250417 0.362055,-1.008147 0.998893,-1.686767 1.088159,-3.415171 0.08926,-1.728404 -0.575377,-4.589825 -2.840127,-5.583101 -2.264755,-0.993275 -4.443571,-1.290508 -6.703811,-0.07659 -2.260233,1.213916 -3.229325,1.747738 -3.612061,2.840751 -0.382736,1.093014 0.129931,3.100011 0.467371,3.578541 0.337445,0.478528 0.826949,1.041883 0.856783,1.984023 0.02983,0.942139 0.274064,2.351232 0.73163,2.559249 0.457565,0.208015 0.944036,0.40073 0.944036,0.770494 0,0.369768 0,4.658144 0,4.658144"
       id="path19" /><path
       style="fill:none;stroke:#141e30;stroke-width:0.625;stroke-linecap:round;stroke-linejoin:round;stroke-dasharray:none;stroke-opacity:1;paint-order:markers stroke fill"
       d="m 51.841461,45.844368 c -0.02759,-0.09246 0.442049,-1.965919 0.478454,-2.81045 0.03638,-0.844531 -0.235652,-3.276248 0.19383,-4.025981 0.429483,-0.749735 0.981321,-1.870735 1.989262,-1.670985 1.007941,0.199751 1.504154,0.528327 2.456644,0.532939 0.952491,0.0046 2.051716,-0.346382 2.723596,-0.04062 0.671882,0.305752 1.428998,1.639319 1.634391,2.629639 0.205399,0.990322 0.0283,5.686841 -0.186244,6.487618"
       id="path20" /><path
       style="fill:none;stroke:#141e30;stroke-width:0.625;stroke-linecap:round;stroke-linejoin:round;stroke-dasharray:none;stroke-opacity:1;paint-order:markers stroke fill"
       d="M 64.176892,80.393113 C 62.60591,80.031936 59.875971,79.022911 58.684491,78.662852 57.49301,78.302794 55.00007,77.775897 54.119246,77.698483 c -0.880825,-0.07742 -2.234977,-0.1985 -3.410934,-0.103403 -1.175964,0.09509 -3.429219,0.532534 -4.125472,0.662749 -0.696253,0.13022 -1.875375,0.424291 -1.875375,0.424291"
       id="path21"
       sodipodi:nodetypes="cssssc" /><path
       style="fill:none;stroke:#141e30;stroke-width:0.625;stroke-linecap:round;stroke-linejoin:round;stroke-dasharray:none;stroke-opacity:1;paint-order:markers stroke fill"
       d="m 63.717762,82.157958 c -3.352963,-0.985514 -3.169779,-0.948951 -5.033271,-1.66502 -1.863492,-0.716064 -3.480822,-1.344214 -4.806466,-1.652519 -1.325643,-0.3083 -3.842519,0.425971 -3.842519,0.425971 0,0 -1.605673,1.582462 -2.804502,1.439223 -1.198828,-0.143239 -1.905803,-1.593358 -2.899722,-2.058411"
       id="path22"
       sodipodi:nodetypes="csscsc" /><path
       style="fill:none;stroke:#141e30;stroke-width:0.625;stroke-linecap:round;stroke-linejoin:round;stroke-dasharray:none;stroke-opacity:1;paint-order:markers stroke fill"
       d="m 60.599506,47.846038 c -0.877568,1.37667 -2.030553,1.952296 -2.402424,2.044413 -0.371878,0.09212 -1.998643,0.109374 -2.189168,0.01853 -0.190521,-0.09084 -0.900781,-0.423582 -1.129065,-0.651867 L 53.238421,47.3543"
       id="path23" /><path
       style="fill:none;stroke:#141e30;stroke-width:0.624999;stroke-linecap:round;stroke-linejoin:round;stroke-dasharray:none;stroke-opacity:1;paint-order:markers stroke fill"
       d="m 31.412815,91.189544 c 0.924766,-3.073061 4.24065,-6.780163 4.73169,-7.272328 0.49104,-0.492165 0.555402,0.03469 0.914936,0.21034 0.359535,0.175649 0.679366,-0.107821 0.990298,-0.449832 0.403842,-0.444209 0.315093,0.151346 1.486003,-0.211566 0.803429,-0.314925 0.809713,-0.328115 0.988045,-0.995701 0.178331,-0.667586 0.357703,0.199509 0.804084,-0.23404 0.446381,-0.433546 0.683789,-0.786725 0.820949,-0.691393 0.13716,0.09533 1.52327,1.18669 2.850152,1.225576 l 2.048989,0.06005"
       id="path24"
       sodipodi:nodetypes="cssssssssc" /><path
       style="fill:none;stroke:#141e30;stroke-width:0.624999;stroke-linecap:round;stroke-linejoin:round;stroke-dasharray:none;stroke-opacity:1;paint-order:markers stroke fill"
       d="m 30.987754,91.719042 c 0,0 0.455131,-2.210156 0.870588,-3.157033 0.415459,-0.946878 2.326232,-3.714278 2.784323,-4.188221 0.458092,-0.473943 1.332312,-1.703822 1.837952,-2.137371 0.505638,-0.433546 1.635853,-1.359085 2.544718,-1.722347 0.908865,-0.363262 1.019405,-0.202131 1.235141,-0.428945 0.215733,-0.226814 0.618223,-0.831414 0.881372,-0.831414 0.263147,0 0.460933,0.458013 0.802531,0.229005 0.341601,-0.229005 2.588315,-2.319817 5.286625,1.222897"
       id="path25"
       sodipodi:nodetypes="csssssssc" /><path
       style="fill:none;stroke:#141e30;stroke-width:0.624999;stroke-linecap:round;stroke-linejoin:round;stroke-dasharray:none;stroke-opacity:1;paint-order:markers stroke fill"
       d="m 42.96733,78.799755 c -0.165804,-1.371232 0.18375,-1.707888 0.245618,-2.269056 0.06187,-0.561168 0.316823,-1.371727 0.316823,-1.371727"
       id="path27" /><path
       style="fill:none;stroke:#141e30;stroke-width:0.624999;stroke-linecap:round;stroke-linejoin:round;stroke-dasharray:none;stroke-opacity:1;paint-order:markers stroke fill"
       d="m 41.669398,84.342879 c 2.821636,-0.836753 2.268765,0.35265 4.829487,-1.783162"
       id="path35" /><path
       style="fill:none;stroke:#141e30;stroke-width:0.624999;stroke-linecap:round;stroke-linejoin:round;stroke-dasharray:none;stroke-opacity:1;paint-order:markers stroke fill"
       d="m 50.035504,79.26639 c 0,0 -1.458409,0.831882 -2.768666,0.448048 -1.310256,-0.383836 -2.43065,-0.914424 -2.43065,-0.914424"
       id="path39" /><path
       style="fill:none;stroke:#141e30;stroke-width:0.624999;stroke-linecap:round;stroke-linejoin:round;stroke-dasharray:none;stroke-opacity:1;paint-order:markers stroke fill"
       d="m 50.513024,66.339833 c 0,0 -1.595035,-0.795012 -2.167503,-0.280437"
       id="path41" /><path
       style="fill:none;stroke:#141e30;stroke-width:0.624999;stroke-linecap:round;stroke-linejoin:round;stroke-dasharray:none;stroke-opacity:1;paint-order:markers stroke fill"
       d="m 46.498885,82.559717 c -1.396616,1.765948 -2.263068,1.850337 -1.662697,2.404213 0.600374,0.553876 1.647285,3.15568 1.506757,4.628002"
       id="path33" /><path
       style="fill:none;stroke:#141e30;stroke-width:0.624999;stroke-linecap:round;stroke-linejoin:round;stroke-dasharray:none;stroke-opacity:1;paint-order:markers stroke fill"
       d="m 39.265669,84.303194 c 3.020311,-0.383357 4.235569,0.764752 4.838152,1.410552 0.602581,0.6458 1.926188,2.280571 2.239124,3.878186"
       id="path34" /><path
       style="fill:none;stroke:#141e30;stroke-width:0.624999;stroke-linecap:round;stroke-linejoin:round;stroke-dasharray:none;stroke-opacity:1;paint-order:markers stroke fill"
       d="m 47.097439,80.275282 c -0.607347,-0.423677 -1.378987,-0.900646 -2.57718,-0.759492 -1.479432,0.174286 -2.134725,0.884954 -2.134725,0.884954 0,0 0.679293,0.899649 2.052401,1.376761 1.308169,0.454547 1.990402,0.955505 2.780863,1.001443"
       id="path45"
       sodipodi:nodetypes="cscsc" /><path
       style="fill:none;stroke:#141e30;stroke-width:0.624999;stroke-linecap:round;stroke-linejoin:round;stroke-dasharray:none;stroke-opacity:1;paint-order:markers stroke fill"
       d="m 46.888217,82.88017 c 1.56052,-0.60788 0.679744,-2.758877 0.157125,-2.920847"
       id="path46" /><path
       style="display:inline;fill:none;stroke:#141e30;stroke-width:0.624999;stroke-linecap:round;stroke-linejoin:round;stroke-dasharray:none;stroke-opacity:1;paint-order:markers stroke fill"
       d="m 45.96198,82.827059 c 1.56052,-0.60788 0.679744,-2.758877 0.157125,-2.920847"
       id="path46-5" /><path
       style="fill:none;stroke:#141e30;stroke-width:0.624999;stroke-linecap:round;stroke-linejoin:round;stroke-dasharray:none;stroke-opacity:1;paint-order:markers stroke fill"
       d="m 48.498514,83.056621 c 0.689389,0.01802 0.505055,-0.833723 0.553968,-2.090208 0.04393,-1.128547 -0.169066,-1.823615 -0.692992,-1.80695 -0.523927,0.01666 -0.550364,3.879138 0.139024,3.897158 z"
       id="path44"
       sodipodi:nodetypes="zszz" /></g></svg>
