<svg xmlns="http://www.w3.org/2000/svg" viewBox="0 0 1024 1024" style="clip-rule:evenodd;fill-rule:evenodd;stroke-linejoin:round;stroke-miterlimit:2">
  <style>
    path { fill: #000; }
    @media (prefers-color-scheme: dark) {
      path { fill: #fff; }
    }
  </style>
  <g transform="matrix(1.1130483,0,0,1.3315425,-166.93968,-806.19768)">
    <g transform="matrix(1.1123199,0,0,1.1567988,-67.807732,-173.05145)">
      <path
        d="m 6475.85,12220.6 v 51.7 c 0,1.9 0.68,3.5 1.94,4.7 1.23,1.2 2.82,1.9 4.79,1.9 h 9.4 c 1.97,0 3.56,-0.7 4.79,-1.9 1.26,-1.2 1.94,-2.8 1.94,-4.7 v -64.5 c 0.01,-0.3 0.01,-0.5 0,-0.8 v -66.081 c 0,-1.9 -0.68,-3.5 -1.94,-4.7 -1.23,-1.2 -2.82,-1.9 -4.79,-1.9 h -9.4 c -1.97,0 -3.56,0.7 -4.79,1.9 -1.26,1.2 -1.94,2.8 -1.94,4.7 v 57.181 l -54.64,-8.9 v -48.281 c 0,-1.9 -0.68,-3.5 -1.94,-4.7 -1.23,-1.2 -2.82,-1.9 -4.79,-1.9 h -9.4 c -1.97,0 -3.56,0.7 -4.79,1.9 -1.26,1.2 -1.94,2.8 -1.94,4.7 v 44.581 l -41.8385,-7.181 c -2.21,-0.3 -4.07,0 -5.59,0.8 -1.83,1 -2.91,2.5 -3.25,4.5 l -1.49,8.6 c -0.37,2.2 0.19,4 1.61,5.5 1.18,1.3 2.84,2.1 5.01,2.5 l 45.5485,7.681 v 64.4 c 0,1.9 0.68,3.5 1.94,4.7 1.23,1.2 2.82,1.9 4.79,1.9 h 9.4 c 1.97,0 3.56,-0.7 4.79,-1.9 1.26,-1.2 1.94,-2.8 1.94,-4.7 v -60.6 z m 35.37,-79.381 v 65.481 c -0.03,0.3 -0.03,0.7 0,1.1 v 64.5 c 0,1.9 0.68,3.5 1.94,4.7 1.23,1.2 2.82,1.9 4.79,1.9 h 9.4 c 1.97,0 3.56,-0.7 4.79,-1.9 1.26,-1.2 1.94,-2.8 1.94,-4.7 v -51.7 l 40.5,-6.6 -0.37,-2.3 0.37,2.3 39.8691,-6.383 c 1.91,-0.3 3.34,-1.2 4.32,-2.7 0.95,-1.3 1.34,-3 0.99,-5.1 l -1.48,-8.6 c -0.33,-1.9 -1.22,-3.3 -2.57,-4.3 -1.38,-1.1 -3.03,-1.5 -4.97,-1.2 l -76.6591,12.383 v -44.181 l 58.8,-9.6 c 1.67,-0.3 2.94,-1.2 3.72,-3 0.54,-1.2 0.73,-2.7 0.41,-4.6 l -1.48,-8.6 c -0.3,-1.8 -0.97,-3.1 -1.88,-4.1 -1.28,-1.4 -2.79,-1.8 -4.48,-1.6 l -73.61,12 c -1.76,0.3 -3.04,1.3 -3.8,3 -0.48,1 -0.69,2.3 -0.54,3.8 z"
        style="fill-rule:nonzero"
        transform="matrix(2.84104,0,0,2.38606,-17817.7,-28112.8)" />
    </g>
  </g>
</svg>
